<svg xmlns="http://www.w3.org/2000/svg" viewBox="0 0 32 32">
  <path d="M26.4 20c-1.2-1.2-2.8-1.8-4.5-1.7.5-1.5 1.2-2.9 2-4.2 1.5-2.5 3-4.8 3-7.1 0-3.6-2.5-6.1-6-6.1-2.8 0-5.2 1.6-6.2 4.1-.9-2.5-3.3-4.1-6.1-4.1-3.5 0-6 2.5-6 6.1 0 2.3 1.5 4.6 3 7.1.8 1.3 1.5 2.7 2 4.2-1.7-.1-3.3.5-4.5 1.7C1.9 21.2 1 22.8 1 24.5c0 3.6 3.1 6.5 7 6.5h16c3.9 0 7-2.9 7-6.5 0-1.7-.9-3.3-2.6-4.5zM8.6 3c1.7 0 3.2 1.1 3.8 2.8.2.5-.2 1.1-.7 1.1h-.2c-.4 0-.8-.3-.9-.7-.3-1-1.2-1.7-2-1.7-1.9 0-3.5 1.6-3.5 3.5 0 1.5-1 3.2-2.5 5.5C2 14.5 1.3 15.6.8 16.8c-.5-2.2-.8-4.4-.8-6.3C0 6.1 3.1 3 8.6 3zm14.8 0c5.5 0 8.6 3.1 8.6 7.5 0 1.9-.3 4.1-.8 6.3-.5-1.2-1.2-2.3-1.8-3.3-1.5-2.3-2.5-4-2.5-5.5 0-1.9-1.6-3.5-3.5-3.5-.8 0-1.7.7-2 1.7-.1.4-.5.7-.9.7h-.2c-.5 0-.9-.6-.7-1.1.6-1.7 2.1-2.8 3.8-2.8zM9 29c-2.8 0-5-2-5-4.5S6.2 20 9 20h14c2.8 0 5 2 5 4.5S25.8 29 23 29H9z" fill="#f89820"/>
  <path d="M11 22h10v2H11z" fill="#5382a1"/>
</svg>